<svg width="1443" height="727" viewBox="0 0 1443 727" fill="none" xmlns="http://www.w3.org/2000/svg">
<rect x="3" width="1443" height="521" fill="#54DAF1" fill-opacity="0.28"/>
<path d="M1236.41 328.601C1301.52 389.335 1391.29 393.871 1443 385.351V673H401V464.195C411.027 464.195 428.299 460.093 445.217 464.195C482.876 473.324 527.358 542.837 565.126 551.307C657.152 571.948 753.526 423.595 753.526 423.595C753.526 423.595 821.343 336.616 867.291 283.842C912.218 232.241 954.735 203 1046.27 203C1120.2 203 1191.2 286.422 1236.41 328.601Z" fill="#FAA35C"/>
<path d="M285.892 272.911C195.791 343.466 71.5566 348.735 0 338.838V673H1442V430.43C1428.12 430.43 1404.22 425.666 1380.81 430.43C1328.69 441.036 1267.14 521.789 1214.87 531.63C1087.52 555.608 954.147 383.265 954.147 383.265C954.147 383.265 860.296 282.222 796.71 220.914C734.538 160.969 675.699 127 549.023 127C446.717 127 348.467 223.911 285.892 272.911Z" fill="#C88559" fill-opacity="0.58"/>
<path d="M11 559.669C39.934 535.526 89.6557 500.244 148.925 484.243C216.5 466 333.663 452.964 382.172 527.201C406.132 563.869 380.128 605.5 409 637.5C437.691 669.299 485.941 648.863 522.5 666C554.5 681 563 707.5 578 726" stroke="#E4E4E4"/>
<path d="M1176.47 596.936C1175.93 594.69 1178.02 592.703 1180.24 593.359L1186.88 595.327C1189.09 595.984 1189.77 598.791 1188.09 600.38L1183.07 605.149C1181.39 606.738 1178.62 605.918 1178.08 603.673L1176.47 596.936Z" fill="#EC9AC1"/>
<path d="M893.467 153.936C892.928 151.69 895.022 149.703 897.236 150.359L903.879 152.327C906.093 152.984 906.767 155.791 905.092 157.38L900.066 162.149C898.39 163.738 895.623 162.918 895.084 160.673L893.467 153.936Z" fill="#A6EC9A"/>
<circle cx="596.5" cy="110.5" r="4.5" fill="#FFD6D6"/>
<circle cx="1320.5" cy="71.5" r="4.5" fill="#F9D6FF"/>
<path d="M861.343 627C870.56 627.312 879.778 627.222 888.995 627.088C914.711 626.731 940.427 626.419 966.143 626.059C970.141 626.016 975.319 625.211 975.571 622.303C975.824 619.708 971.741 618.054 968.29 617.249C955.958 614.429 942.995 613.848 930.2 613.312C911.386 612.551 892.53 611.925 873.717 611.388C861.974 611.076 849.895 610.807 838.952 613.669C832.975 615.235 824.221 621.855 833.733 625.12C836.385 626.016 841.688 625.659 844.55 625.88C850.148 626.373 855.703 626.776 861.343 627Z" fill="url(#paint0_linear_0_1)"/>
<path opacity="0.22" d="M861.336 627C870.553 627.312 879.771 627.222 888.988 627.088C914.704 626.731 940.42 626.419 966.136 626.059C970.134 626.016 975.311 625.211 975.564 622.303C975.816 619.708 971.734 618.054 968.282 617.249C955.95 614.429 942.987 613.848 930.192 613.312C911.379 612.551 892.523 611.925 873.71 611.388C861.967 611.076 849.888 610.807 838.945 613.669C832.968 615.235 824.214 621.855 833.726 625.12C836.377 626.016 841.68 625.659 844.542 625.88C850.14 626.373 855.696 626.776 861.336 627Z" fill="url(#paint1_linear_0_1)"/>
<path d="M913.112 275.818C907.893 264.68 903.685 253.095 899.476 241.511C897.918 237.172 896.824 231.581 900.023 228.405C901.959 226.481 904.989 226.168 907.514 227.063C910.04 227.958 912.144 229.836 913.996 231.849C916.732 234.846 919.005 238.245 921.151 241.69C930.874 257.39 932.431 278.144 933.694 296.885C934.62 310.886 932.515 325.736 938.155 338.439C936.05 339.289 933.904 340.138 931.8 340.988C931.295 341.167 930.747 341.391 930.242 341.123C929.737 340.854 929.569 340.228 929.401 339.646C926.833 329.269 924.981 318.803 921.656 308.515C918.247 298.003 917.7 285.882 913.112 275.818Z" fill="#EDEDED"/>
<path d="M956.111 351.055C957.121 351.234 958.174 351.457 959.099 351.01C960.32 350.473 960.909 349.042 961.414 347.7C967.896 329.764 969.748 310.351 970.884 291.162C967.054 289.552 962.845 289.194 958.763 288.881C947.609 287.987 936.414 287.092 925.261 286.197C918.695 285.661 912.045 285.169 905.563 286.466C904.806 305.968 904.006 325.425 903.248 344.927C903.164 346.135 951.776 350.205 956.111 351.055Z" fill="#E2E2E2"/>
<path d="M937.224 318.575C937.308 318.575 937.435 318.531 937.519 318.441C937.351 318.441 937.267 318.486 937.224 318.575Z" fill="white"/>
<path d="M931.408 323.15C934.481 323.821 937.595 324.402 940.71 324.895C941.173 324.984 941.509 324.671 941.678 324.358C942.014 324.179 942.267 323.821 942.141 323.329C940.836 318.409 939.531 313.488 938.227 308.568C937.974 307.629 936.795 307.718 936.543 308.568C935.112 313.22 933.218 317.604 930.903 321.853C930.608 322.255 930.819 323.016 931.408 323.15ZM937.258 311.834C938.227 315.546 939.237 319.214 940.205 322.926C937.763 322.524 935.365 322.076 932.966 321.585C934.649 318.409 936.08 315.188 937.258 311.834Z" fill="white"/>
<path d="M910.2 211.682C907.507 215.261 903.466 217.407 899.594 219.376C896.395 221.031 893.028 222.686 889.493 222.328C883.39 221.702 879.434 215.35 876.404 209.67C871.858 201.126 867.186 192.136 867.102 182.34C866.976 173.439 870.932 164.582 877.456 159.036C883.979 153.49 892.986 151.387 901.109 153.445C910.874 155.95 922.238 163.241 919.797 175.273C918.702 180.73 916.808 185.873 915.924 191.42C914.872 198.219 914.367 206.091 910.2 211.682Z" fill="#A36F4E"/>
<path d="M922.236 164.362C924.971 170.803 925.771 178.005 926.15 185.072C926.192 185.698 926.192 186.414 925.855 186.906C925.266 187.756 924.046 187.666 923.077 187.487C912.766 185.519 902.496 183.551 892.185 181.628C888.691 180.957 884.483 180.554 882.21 183.417C880.947 184.982 880.652 187.174 880.526 189.232C880.189 194.107 880.526 198.983 881.494 203.769C878.758 200.056 877.664 195.315 877.285 190.618C877.075 187.935 876.443 184.401 873.918 184.043C871.435 183.73 869.92 187.264 870.593 189.813C871.267 192.408 873.119 194.42 874.045 196.88C874.76 198.804 874.928 200.906 875.139 202.964C875.728 208.778 876.78 214.593 879.179 219.826C881.578 225.06 885.408 229.756 890.417 232.127C886.292 230.383 882.21 228.593 878.085 226.849C873.75 225.015 869.457 223.136 865.164 221.258C862.091 219.916 858.977 218.44 856.662 215.935C855.063 214.235 853.884 212.133 853 209.897C848.455 198.893 850.054 186.145 853.253 174.65C855.778 165.66 859.566 156.49 866.847 151.122C875.307 144.905 886.46 145.263 896.688 146.247C907.168 147.365 917.774 153.851 922.236 164.362Z" fill="#EDDDB2"/>
<path d="M855.655 496.92C857.002 464.357 854.055 431.122 854.224 398.381C853.298 387.019 854.771 375.435 858.475 364.744C858.685 364.073 858.938 363.403 859.401 362.91C860.832 361.345 863.273 362.15 865.209 363C883.475 371.006 905.067 369.083 921.691 357.722C924.974 363.045 925.943 369.62 926.784 375.927C928.131 386.17 929.562 396.368 929.941 406.657V406.7C930.025 408.892 930.067 411.127 930.025 413.32C929.815 426.158 927.5 438.772 925.732 451.431C924.554 459.66 923.544 467.979 923.459 476.344C923.375 483.188 924.301 489.406 922.87 496.114C919.377 512.62 919.377 530.555 917.904 547.375C916.346 565.401 916.052 564.819 914.789 582.888C914.747 583.605 914.705 584.32 914.621 585.035C913.779 585.259 900.732 588.479 900.732 584.902C899.637 549.88 897.238 533.419 896.144 498.395C895.681 483.634 896.607 433.805 893.072 419.762C891.64 419.895 890.168 420.074 888.736 420.252C880.866 466.637 872.869 529.258 864.998 575.643C864.325 579.714 863.483 584.142 860.958 586.78C858.433 589.42 853.719 588.703 852.961 584.632C855.276 549.207 854.224 532.39 855.655 496.92Z" fill="#736357"/>
<path d="M890.869 256.134C890.912 256.134 890.997 256.179 891.039 256.179C890.954 256.179 890.912 256.134 890.869 256.134Z" fill="white"/>
<path d="M890.544 256.051C890.587 256.051 890.587 256.095 890.629 256.095C890.587 256.051 890.544 256.051 890.544 256.051Z" fill="white"/>
<path d="M890.671 256.095C890.629 256.095 890.629 256.051 890.629 256.051C890.714 256.095 890.799 256.095 890.884 256.14C890.799 256.14 890.756 256.14 890.671 256.095Z" fill="#1D4360"/>
<path d="M851.399 361.08C858.47 347.617 862.089 331.872 860.195 316.53C858.764 304.99 854.345 293.271 857.249 282.044C858.764 276.229 862.132 271.175 865.078 266.031C871.812 254.222 876.441 241.072 878.714 227.474C878.841 226.758 878.967 226.043 879.43 225.551C880.398 224.522 882.039 225.103 883.302 225.595C887.805 227.429 892.856 227.653 897.486 226.356C900.137 225.595 900.769 224.522 902.41 226.892C903.799 228.905 904.473 232.305 905.314 234.631C909.102 245.097 912.427 255.877 913.227 267.104C913.648 272.74 913.437 278.465 914.994 283.877C916.257 288.306 918.656 292.197 920.634 296.357C927.705 311.431 928.589 328.875 933.85 344.799C934.692 347.393 935.702 349.943 935.955 352.671C936.207 355.399 935.66 358.352 933.808 360.275C932.503 361.662 930.694 362.333 928.968 362.959C926.443 363.898 923.875 364.882 921.35 365.821C917.815 367.163 914.279 368.461 910.618 369.221C906.156 370.16 901.568 370.205 896.981 370.25C888.563 370.339 880.187 370.473 871.77 370.563C866.972 370.608 862.216 370.697 857.417 370.294C854.219 370.026 850.22 368.684 849.968 365.285C849.926 363.853 850.683 362.422 851.399 361.08Z" fill="#F2F2F2"/>
<path d="M904.344 583.693C903.375 583.648 902.365 583.512 901.524 584.051C900.598 584.632 900.135 585.795 899.882 586.913C898.241 593.845 900.766 601.002 901.482 608.116C901.902 612.319 901.692 616.614 902.323 620.817C903.67 620.684 905.017 620.548 906.364 620.415C906.069 617.91 906.027 615.405 906.28 612.901C906.364 612.095 906.49 611.29 906.911 610.62C907.332 609.948 908.174 609.545 908.889 609.815C909.52 610.081 909.815 610.799 910.068 611.468C910.615 613.034 911.077 614.645 911.414 616.256C911.583 617.15 911.751 618.134 912.34 618.804C913.224 619.879 914.781 619.967 916.17 619.924C921.179 619.833 926.187 619.745 931.154 619.655C933.3 619.609 935.699 619.43 937.046 617.686C938.688 615.539 937.678 612.141 935.826 610.26C933.932 608.337 931.406 607.353 929.218 605.878C926.819 604.267 924.798 602.031 923.368 599.393C920.926 594.92 920.842 588.164 917.601 584.275C916.255 582.664 914.739 582.931 912.888 583.245C910.068 583.648 907.247 583.872 904.344 583.693Z" fill="#3D322B"/>
<path d="M852.198 578.252C851.735 578.207 851.272 578.252 850.893 578.519C850.64 578.697 850.472 579.012 850.346 579.324C848.536 583.261 848.62 587.822 847.863 592.117C846.81 598.201 844.159 603.792 841.97 609.516C841.339 611.172 840.75 612.917 840.792 614.704C840.876 618.193 843.527 621.191 846.6 622.444C849.672 623.695 853.124 623.471 856.364 622.844C857.038 622.711 857.711 622.578 858.3 622.263C858.932 621.951 859.437 621.415 859.9 620.879C863.856 616.315 864.067 609.516 864.277 603.298C864.403 599.721 864.614 596.187 864.866 592.653C865.077 589.657 866.129 585.854 865.624 582.904C865.203 580.396 863.435 580.218 861.373 579.951C858.301 579.415 855.312 578.431 852.198 578.252Z" fill="#3D322B"/>
<path d="M875.141 342.065C875.688 364.251 877.498 386.794 888.441 407.729C884.484 403.836 875.519 404.194 869.164 406.251C862.809 408.308 857.169 411.618 850.224 412.469C844.248 413.184 837.808 411.842 833.557 408.935C825.35 403.389 826.486 394.399 828.296 386.66C837.303 347.835 847.531 309.055 853.002 269.962C854.096 262.269 855.107 254.306 860.62 247.508C863.861 243.527 868.617 239.993 869.922 235.52C870.595 233.239 870.301 230.869 871.395 228.677C872.489 226.485 881.538 224.07 884.905 224.651C890.25 231.003 881.075 238.651 880.149 245.808C879.139 253.546 878.297 261.24 877.582 268.978C876.109 284.722 875.267 300.512 874.972 316.301C874.93 324.889 874.93 333.477 875.141 342.065Z" fill="black"/>
<path d="M909.273 365.37C907.926 378.028 905.737 391.044 910.788 403.3C911.335 404.597 911.966 405.939 913.271 406.969C916.638 409.607 922.741 409.337 927.96 409.204C940.166 408.847 939.324 405.536 950.309 409.116C947.574 392.297 944.838 375.479 942.102 358.66C938.945 339.158 935.746 319.567 926.95 300.87C914.66 274.748 912.766 253.726 903.002 227.157C902.37 225.412 893.7 225.993 891.217 225.188C888.818 227.514 893.195 234.134 894.163 236.997C895.72 241.515 897.193 246.032 898.54 250.595C901.234 259.675 903.507 268.844 905.317 278.058C908.978 296.576 910.83 315.273 910.914 333.97C910.914 344.392 910.367 354.903 909.273 365.37Z" fill="black"/>
<path d="M892.604 332.646C893.908 332.78 895.382 332.87 896.097 334.033C896.476 334.659 896.56 335.508 897.149 335.956C897.528 336.269 898.033 336.269 898.496 336.358C900.432 336.761 902.032 338.684 902.116 340.786C902.2 342.889 900.853 344.991 898.959 345.617C896.813 346.333 894.498 345.259 892.519 344.096C888.816 341.994 885.322 339.579 881.997 336.85C881.619 336.537 881.24 336.224 881.071 335.777C880.146 333.585 881.619 330.32 883.723 330.141C886.206 329.962 889.868 332.422 892.604 332.646Z" fill="#A36F4E"/>
<path d="M878.723 325.169C870.937 318.37 865.381 309.022 861.719 299.092C860.625 296.095 859.657 293.009 859.278 289.833C858.773 285.942 859.11 282.05 859.404 278.159C859.825 272.881 860.246 267.513 861.93 262.548C863.024 259.238 864.665 256.107 865.928 252.842C867.822 247.877 868.79 242.599 869.758 237.366C870.053 235.845 870.305 234.279 870.011 232.803C869.716 231.283 868.706 229.851 867.275 229.583C865.718 229.314 864.287 230.477 863.108 231.64C852.67 242.062 847.072 256.957 844.631 271.941C842.906 282.542 842.695 293.814 846.736 303.654C848.419 307.725 850.776 311.437 853.301 314.971C860.709 325.258 870.137 334.518 881.753 338.364C882.174 338.498 882.637 338.633 882.974 338.409C883.311 338.23 883.437 337.828 883.605 337.47C884.363 335.546 886.299 332.684 885.373 330.537C884.531 328.524 880.28 326.556 878.723 325.169Z" fill="#EDEDED"/>
<path d="M1118.59 629.993C1126.21 629.948 1133.87 629.457 1141.49 628.963C1162.74 627.579 1184 626.192 1205.29 624.805C1208.62 624.581 1212.87 623.597 1213 620.689C1213.12 618.097 1209.71 616.574 1206.85 615.949C1196.58 613.623 1185.85 613.578 1175.24 613.578C1159.67 613.578 1144.06 613.711 1128.48 613.936C1118.76 614.069 1108.74 614.338 1099.78 617.603C1094.9 619.393 1087.78 626.371 1095.78 629.233C1097.97 630.038 1102.39 629.411 1104.75 629.547C1109.29 629.86 1113.96 630.038 1118.59 629.993Z" fill="url(#paint2_linear_0_1)"/>
<path opacity="0.22" d="M1118.58 629.993C1126.2 629.948 1133.86 629.457 1141.48 628.963C1162.73 627.579 1183.99 626.192 1205.28 624.805C1208.61 624.581 1212.86 623.597 1212.99 620.689C1213.11 618.097 1209.7 616.574 1206.84 615.949C1196.57 613.623 1185.84 613.578 1175.23 613.578C1159.66 613.578 1144.05 613.711 1128.47 613.936C1118.75 614.069 1108.73 614.338 1099.77 617.603C1094.89 619.393 1087.77 626.371 1095.77 629.233C1097.96 630.038 1102.38 629.411 1104.73 629.547C1109.28 629.86 1113.95 630.038 1118.58 629.993Z" fill="url(#paint3_linear_0_1)"/>
<path d="M1081.45 231.769C1081.2 230.114 1080.02 228.817 1078.84 227.654C1078.25 227.073 1077.62 226.446 1076.99 225.91C1073.66 223.136 1069.33 221.75 1065.08 222.152C1063.86 222.286 1062.59 222.555 1061.71 223.405C1060.99 224.12 1060.57 225.104 1060.41 226.133C1060.36 226.357 1060.32 226.625 1060.41 226.849C1060.57 227.699 1061.54 228.012 1062.34 228.146C1063.18 228.28 1064.07 228.459 1064.74 228.996C1065.41 229.533 1065.84 230.606 1065.41 231.367C1065.2 231.725 1064.87 231.993 1064.78 232.395C1064.66 233.066 1065.29 233.648 1065.92 233.871C1068.23 234.676 1070.76 233.379 1073.12 233.916C1073.83 234.095 1074.55 234.408 1075.26 234.632C1075.98 234.811 1076.78 234.9 1077.45 234.497C1078.12 234.408 1078.84 234.274 1079.51 234.095C1080.19 233.916 1080.95 233.648 1081.28 233.022C1081.49 232.664 1081.54 232.216 1081.45 231.769Z" fill="#EADDD0"/>
<path d="M1043.2 203.041C1048.71 202.191 1054.31 201.296 1059.91 201.565C1061 201.609 1062.18 201.743 1062.98 202.504C1063.74 203.219 1063.99 204.338 1064.24 205.411C1069.97 231.533 1075.65 257.655 1081.37 283.777C1081.46 284.224 1081.58 284.671 1081.5 285.119C1081.33 286.147 1080.36 286.729 1079.52 287.176C1065.21 294.557 1048.71 294.87 1032.84 295.004C1031.45 295.004 1029.98 295.004 1028.89 294.154C1027.67 293.259 1027.2 291.649 1026.78 290.128C1020.3 265.483 1018.79 239.629 1013.36 214.67C1012.98 212.926 1012.56 211.047 1013.1 209.303C1014.28 205.545 1022.53 206.261 1025.56 205.814C1031.41 204.919 1037.31 203.98 1043.2 203.041Z" fill="#545454"/>
<path d="M1043.49 206.403C1048.58 205.598 1053.75 204.793 1058.89 204.927C1059.9 204.972 1060.99 205.062 1061.71 205.732C1062.38 206.359 1062.64 207.298 1062.85 208.237C1067.85 230.87 1072.86 253.503 1077.87 276.181C1077.96 276.539 1078.04 276.941 1077.96 277.344C1077.79 278.238 1076.9 278.775 1076.1 279.178C1062.85 285.753 1047.61 286.2 1032.96 286.513C1031.7 286.558 1030.35 286.558 1029.3 285.842C1028.21 285.082 1027.74 283.651 1027.41 282.353C1021.68 260.973 1020.51 238.564 1015.75 216.915C1015.41 215.394 1015.08 213.784 1015.58 212.263C1016.72 208.953 1024.29 209.534 1027.07 209.087C1032.58 208.148 1038.06 207.253 1043.49 206.403Z" fill="#F7F7F7"/>
<path d="M1052.92 290.124C1053.05 290.348 1053.26 290.527 1053.43 290.661C1053.89 290.974 1054.39 291.153 1054.94 291.108C1055.49 291.063 1055.99 290.84 1056.33 290.437C1057.38 289.14 1056.96 286.904 1055.15 286.769C1053.8 286.68 1052.12 288.737 1052.92 290.124Z" fill="#F7F7F7"/>
<path d="M1110.2 266.25C1105.95 260.659 1103.05 254.039 1098.71 248.537C1092.86 241.112 1086.63 235.789 1082.76 227.022C1080.95 230.019 1074.89 233.016 1073.08 236.013C1080.11 246.166 1087.14 254.71 1090.08 268.665C1091.47 275.106 1098.04 284.723 1101.19 290.449C1102.88 293.49 1105.15 296.129 1107.55 298.589C1112.73 303.912 1118.87 308.564 1125.94 309.906C1136.68 311.918 1147.16 304.404 1146.94 292.193C1146.74 281.234 1132.76 282.263 1125.69 278.863C1119.67 276.001 1114.29 271.662 1110.2 266.25Z" fill="#E0C74E"/>
<path d="M1129.86 221.025C1133.23 222.501 1136.47 223.44 1138.82 223.485C1141.6 223.529 1144.17 222.053 1146.61 220.667C1151.62 217.759 1156.88 214.539 1159.45 209.127C1160.92 205.951 1161.3 202.328 1161.59 198.794C1162.31 189.893 1162.65 180.992 1162.56 172.046C1162.52 167.484 1162.31 162.608 1159.91 158.806C1155.91 152.365 1147.62 151.247 1140.34 150.8C1133.18 150.352 1125.61 149.995 1119.25 153.573C1112.64 157.33 1114.16 162.877 1113.65 169.765C1113.02 178.398 1112.64 187.075 1112.56 195.708C1112.52 200.628 1112.69 205.817 1115.09 210.021C1117.4 214.002 1123.8 218.385 1129.86 221.025Z" fill="#EADDD0"/>
<path d="M1171.44 498.427C1170.26 464.791 1172.58 430.527 1172.32 396.668C1173.04 384.949 1171.82 373.006 1168.75 361.958C1168.53 361.287 1168.37 360.571 1167.99 360.035C1166.81 358.424 1164.83 359.274 1163.27 360.124C1148.42 368.444 1130.82 366.52 1117.23 354.846C1114.53 360.348 1113.78 367.147 1113.15 373.677C1112.1 384.233 1110.96 394.789 1110.66 405.435V405.481C1110.62 407.761 1110.58 410.042 1110.62 412.322C1110.83 425.563 1112.73 438.58 1114.24 451.639C1115.21 460.14 1116.09 468.726 1116.18 477.315C1116.26 484.383 1115.55 490.822 1116.72 497.712C1119.63 514.708 1119.67 533.227 1120.89 550.626C1122.24 569.234 1123.54 587.841 1124.64 606.494C1124.68 607.254 1124.72 607.969 1124.76 608.729C1125.48 608.998 1136.08 612.263 1136.08 608.55C1136.88 572.365 1137.68 536.177 1138.48 499.992C1138.82 484.783 1137.94 433.346 1140.76 418.809C1141.93 418.988 1143.11 419.121 1144.29 419.3C1150.81 467.16 1158.64 551.029 1165.17 598.889C1165.76 603.093 1166.43 607.657 1168.49 610.385C1170.55 613.111 1174.38 612.309 1175.01 608.147C1172.95 571.56 1172.7 535.014 1171.44 498.427Z" fill="#4D4D4D"/>
<path d="M1140.71 608.422C1140.58 608.022 1140.5 607.574 1140.37 607.171C1139.07 601.714 1138.39 596.078 1138.39 590.442C1138.39 587.892 1138.52 585.299 1137.97 582.795C1134.9 582.837 1126.27 582.256 1123.2 582.301C1122.95 582.301 1122.65 582.301 1122.44 582.48C1122.23 582.659 1122.15 583.019 1122.1 583.285C1120.76 591.069 1125.3 599.612 1123.66 607.35C1122.99 610.436 1120.29 611.554 1117.81 613.12C1115.66 614.507 1111.41 617.862 1108.84 617.862C1107.37 618.489 1105.82 619.113 1104.72 620.367C1103.63 621.618 1103.21 623.677 1104.22 625.019C1105.1 626.181 1106.7 626.27 1108.09 626.315C1118.78 626.406 1129.51 625.421 1140.03 623.362C1140.66 623.229 1141.34 623.095 1141.8 622.602C1142.18 622.199 1142.35 621.663 1142.47 621.172C1143.69 616.206 1141.93 612.717 1140.71 608.422Z" fill="#811B40"/>
<path d="M1179.77 611.338C1179.43 610.129 1178.67 609.102 1178.3 607.939C1177.87 606.731 1178.08 605.211 1178.08 603.912C1178.08 598.009 1178.08 592.149 1178.08 586.246C1178.08 584.456 1177.92 582.354 1176.49 581.458C1175.52 580.831 1174.25 581.013 1173.16 581.234C1169.92 581.816 1166.64 582.442 1163.4 583.024C1162.56 583.203 1161.59 583.381 1161.12 584.141C1160.66 584.902 1160.79 585.886 1160.95 586.782C1161.92 592.461 1162.3 598.233 1162.13 603.957C1162.09 605.614 1161.97 607.267 1162.13 608.924C1158.39 612.322 1154.26 615.275 1149.8 617.555C1148.5 618.227 1147.15 618.897 1146.22 620.06C1145.3 621.268 1145.04 623.146 1146.06 624.264C1146.94 625.248 1148.37 625.248 1149.59 625.16C1159.19 624.533 1168.78 622.922 1178.08 620.372C1178.63 620.239 1179.22 620.06 1179.6 619.569C1179.89 619.209 1180.02 618.718 1180.1 618.227C1180.57 615.989 1180.44 613.576 1179.77 611.338Z" fill="#811B40"/>
<path d="M1129.8 233.289C1131.19 232.797 1132.58 232.216 1133.93 231.679C1140.79 228.861 1147.65 226.043 1154.47 223.27C1155.48 222.867 1156.57 222.42 1157.62 222.643C1158.47 222.822 1159.14 223.359 1159.81 223.941C1172.65 234.899 1176.14 252.746 1179.68 268.983C1192.18 326.371 1196.18 385.637 1191.51 444.232C1160.91 449.822 1130.02 453.49 1098.95 455.192C1100.68 455.101 1104.17 414.979 1104.59 411.042C1106.91 387.873 1108.13 364.525 1107.88 341.221C1107.62 317.827 1108.76 294.479 1110.32 271.13C1110.95 261.692 1111.66 252.254 1112.46 242.817C1112.76 239.104 1122.82 235.302 1125.34 234.721C1126.9 234.273 1128.37 233.781 1129.8 233.289Z" fill="#811B40"/>
<path d="M1060.92 262.214C1057.93 258.144 1055.32 253.805 1052.67 249.422C1051.7 247.767 1050.82 245.62 1051.87 244.01C1052.5 243.07 1053.72 242.668 1054.82 242.802C1055.91 242.936 1056.92 243.517 1057.85 244.188C1059.2 245.172 1060.37 246.335 1061.55 247.588C1066.73 253.134 1069 261.454 1070.98 268.968C1072.45 274.604 1072.75 280.821 1076.03 285.518C1075.23 286.055 1074.43 286.592 1073.63 287.128C1073.46 287.263 1073.21 287.397 1073 287.307C1072.79 287.263 1072.66 286.994 1072.54 286.77C1070.69 282.745 1069.13 278.675 1066.94 274.783C1064.75 270.802 1063.57 265.927 1060.92 262.214Z" fill="#EDEDED"/>
<path d="M1084.32 289.093C1084.74 289.093 1085.2 289.093 1085.54 288.825C1086 288.512 1086.13 287.841 1086.21 287.259C1087.43 279.387 1086.68 271.291 1085.66 263.374C1083.98 263.061 1082.26 263.284 1080.53 263.508C1075.9 264.134 1071.27 264.76 1066.64 265.387C1063.9 265.744 1061.17 266.147 1058.64 267.22C1059.86 275.227 1061.08 283.233 1062.26 291.24C1062.35 291.777 1082.51 289.138 1084.32 289.093Z" fill="#E2E2E2"/>
<path d="M1054.69 236.309C1053.85 238.009 1052.37 239.216 1050.94 240.379C1049.77 241.319 1048.54 242.303 1047.07 242.482C1044.55 242.75 1042.44 240.513 1040.76 238.456C1038.23 235.37 1035.62 232.104 1034.82 228.124C1034.07 224.5 1034.99 220.564 1037.22 217.701C1039.45 214.884 1042.95 213.184 1046.44 213.318C1050.61 213.497 1055.83 215.42 1055.78 220.564C1055.78 222.89 1055.41 225.171 1055.49 227.497C1055.57 230.405 1055.99 233.67 1054.69 236.309Z" fill="#A36F4E"/>
<path d="M1055.9 216.006C1057.54 218.377 1058.39 221.239 1059.1 224.102C1059.18 224.37 1059.23 224.639 1059.14 224.862C1058.97 225.265 1058.47 225.354 1058.05 225.354C1053.71 225.444 1049.34 225.578 1045 225.667C1043.53 225.712 1041.8 225.891 1041.09 227.278C1040.71 228.038 1040.75 228.933 1040.83 229.783C1041.09 231.795 1041.59 233.763 1042.35 235.642C1040.96 234.39 1040.12 232.511 1039.61 230.632C1039.32 229.559 1038.77 228.172 1037.72 228.262C1036.67 228.351 1036.33 229.917 1036.84 230.901C1037.3 231.885 1038.22 232.556 1038.81 233.495C1039.28 234.211 1039.49 235.061 1039.74 235.866C1040.41 238.192 1041.3 240.473 1042.69 242.396C1044.07 244.32 1046.01 245.885 1048.24 246.422C1046.43 246.064 1044.62 245.706 1042.81 245.348C1040.92 244.99 1038.98 244.588 1037.09 244.185C1035.74 243.917 1034.35 243.604 1033.22 242.754C1032.42 242.217 1031.79 241.457 1031.24 240.607C1028.54 236.537 1028.17 231.169 1028.59 226.204C1028.92 222.313 1029.72 218.242 1032.29 215.424C1035.24 212.159 1039.82 211.309 1044.07 210.817C1048.45 210.37 1053.25 212.07 1055.9 216.006Z" fill="#EDDDB2"/>
<path d="M1042.39 302.42C1044.2 296.292 1044.46 289.582 1042.48 283.499C1041 278.937 1038.27 274.553 1038.61 269.723C1038.77 267.218 1039.74 264.847 1040.54 262.476C1042.35 257.064 1043.24 251.294 1043.11 245.569C1043.11 245.256 1043.11 244.942 1043.24 244.719C1043.53 244.227 1044.25 244.316 1044.83 244.406C1046.81 244.763 1048.88 244.406 1050.68 243.466C1051.7 242.93 1051.86 242.438 1052.75 243.243C1053.46 243.958 1054.01 245.256 1054.51 246.15C1056.87 250.086 1059.06 254.202 1060.28 258.674C1060.87 260.911 1061.25 263.281 1062.3 265.339C1063.19 267.039 1064.45 268.425 1065.58 269.901C1069.67 275.403 1071.35 282.47 1074.76 288.464C1075.31 289.448 1075.9 290.387 1076.23 291.506C1076.57 292.579 1076.57 293.832 1075.94 294.816C1075.52 295.486 1074.84 295.934 1074.17 296.336C1073.2 296.962 1072.23 297.544 1071.31 298.17C1069.96 299.02 1068.66 299.87 1067.23 300.496C1065.46 301.257 1063.61 301.704 1061.75 302.106C1058.34 302.911 1054.94 303.672 1051.53 304.477C1049.59 304.924 1047.65 305.372 1045.68 305.64C1044.33 305.819 1042.6 305.64 1042.27 304.253C1042.01 303.672 1042.23 303.046 1042.39 302.42Z" fill="#F2F2F2"/>
<path d="M1050.6 292.588C1052.54 301.578 1055.07 310.614 1061.17 318.173C1059.23 316.92 1055.61 317.86 1053.21 319.291C1050.77 320.678 1048.75 322.556 1045.97 323.496C1043.58 324.301 1040.88 324.346 1038.9 323.541C1035.12 322.02 1034.91 318.218 1035.03 314.952C1035.66 298.313 1036.8 281.629 1035.96 265.214C1035.79 261.993 1035.58 258.638 1037.3 255.373C1038.31 253.45 1039.96 251.616 1040.17 249.693C1040.25 248.708 1039.96 247.769 1040.25 246.785C1040.54 245.801 1044.04 244.012 1045.43 243.922C1048.12 246.025 1044.96 249.961 1045.13 252.958C1045.34 256.178 1045.6 259.399 1045.89 262.619C1046.52 269.15 1047.41 275.68 1048.54 282.121C1049.17 285.61 1049.85 289.099 1050.6 292.588Z" fill="black"/>
<path d="M1066.34 299.06C1066.76 304.338 1066.93 309.84 1069.92 314.402C1070.26 314.894 1070.59 315.386 1071.22 315.655C1072.82 316.46 1075.26 315.789 1077.37 315.252C1082.29 314.044 1081.7 312.747 1086.46 313.239C1084.02 306.619 1081.62 299.999 1079.18 293.38C1076.36 285.731 1073.54 277.993 1068.49 271.149C1061.46 261.577 1059.02 253.168 1052.96 243.193C1052.58 242.522 1049.09 243.551 1047.99 243.417C1047.19 244.58 1049.51 246.906 1050.14 247.979C1051.15 249.679 1052.07 251.423 1053 253.123C1054.81 256.612 1056.45 260.146 1057.92 263.724C1060.87 270.97 1063.1 278.395 1064.57 285.999C1065.37 290.338 1065.96 294.677 1066.34 299.06Z" fill="black"/>
<path d="M1057.02 287.154C1057.56 287.064 1058.15 287.02 1058.53 287.422C1058.74 287.646 1058.82 288.004 1059.12 288.138C1059.29 288.227 1059.5 288.183 1059.71 288.183C1060.55 288.183 1061.31 288.809 1061.52 289.659C1061.73 290.508 1061.31 291.493 1060.59 291.895C1059.75 292.387 1058.74 292.119 1057.86 291.85C1056.17 291.314 1054.57 290.643 1053.02 289.838C1052.85 289.748 1052.68 289.659 1052.55 289.48C1052.01 288.675 1052.34 287.199 1053.19 286.93C1054.2 286.617 1055.88 287.333 1057.02 287.154Z" fill="#A36F4E"/>
<path d="M1050.74 285.375C1047.04 283.272 1044.05 279.962 1041.78 276.25C1041.1 275.132 1040.47 273.969 1040.05 272.716C1039.55 271.195 1039.38 269.541 1039.17 267.93C1038.91 265.739 1038.7 263.502 1038.96 261.355C1039.17 259.924 1039.59 258.492 1039.84 257.061C1040.22 254.869 1040.22 252.633 1040.18 250.396C1040.18 249.77 1040.18 249.099 1039.93 248.518C1039.67 247.936 1039.17 247.444 1038.54 247.444C1037.86 247.489 1037.4 248.07 1037.02 248.652C1033.57 253.841 1032.48 260.371 1032.64 266.723C1032.77 271.195 1033.57 275.802 1035.97 279.47C1036.98 280.991 1038.24 282.288 1039.55 283.496C1043.38 287.03 1047.92 289.982 1052.97 290.518C1053.14 290.518 1053.35 290.563 1053.48 290.429C1053.6 290.339 1053.65 290.161 1053.65 289.982C1053.81 289.132 1054.36 287.79 1053.81 286.985C1053.39 286.225 1051.5 285.777 1050.74 285.375Z" fill="#EDEDED"/>
<path d="M1068.7 290.892C1068.24 289.058 1067.73 287.224 1066.85 285.524C1065.71 283.332 1063.9 281.588 1061.88 280.336C1060.62 279.531 1059.1 278.904 1057.67 279.307C1056.41 279.709 1055.48 280.917 1055.06 282.214C1054.64 283.556 1054.73 284.987 1054.94 286.374C1055.86 292.144 1061.29 301.492 1067.82 299.972C1068.95 299.703 1070.21 298.988 1070.34 297.735C1070.38 297.288 1070.26 296.841 1070.17 296.393C1069.67 294.604 1069.16 292.77 1068.7 290.892Z" fill="#EADDD0"/>
<path d="M1132.85 316.398C1129.7 324.405 1125.32 333.217 1117.37 335.319C1112.19 336.661 1106.76 334.693 1101.83 332.412C1092.03 327.849 1082.73 322.079 1074.22 315.191C1068.84 310.807 1063.2 304.411 1064.84 297.433C1065.09 296.36 1065.55 295.286 1066.44 294.66C1068.5 293.229 1071.07 295.241 1072.88 296.986C1081.72 305.574 1092.87 311.523 1104.66 313.938C1106.13 314.251 1107.69 314.475 1109.12 314.117C1112.95 313.178 1114.84 308.66 1116.06 304.679C1121.03 288.935 1125.28 272.966 1128.81 256.819C1129.49 253.688 1130.16 250.512 1131.89 247.873C1134.54 243.803 1139.71 241.745 1144.26 242.953C1159.03 246.934 1150.24 265.586 1147.29 275.292C1143 289.158 1138.2 302.89 1132.85 316.398Z" fill="#E0C74E"/>
<path d="M1209.46 265.084C1207.1 262.267 1203.27 260.477 1202.43 256.765C1201.8 253.858 1203.4 250.905 1205.29 248.714C1207.23 246.522 1209.54 244.643 1210.93 242.049C1213.75 236.682 1211.06 228.943 1205.59 226.841C1203.36 225.991 1200.92 225.991 1198.73 225.007C1196.54 224.068 1194.6 221.518 1195.49 219.148C1196.37 216.688 1199.95 215.212 1199.15 212.751C1198.9 212.036 1198.35 211.499 1197.76 211.052C1195.86 209.531 1193.76 208.323 1191.53 207.429C1189.81 206.713 1187.95 206.176 1186.48 205.013C1182.65 201.927 1182.56 195.799 1179.66 191.729C1179.07 190.879 1178.36 190.163 1177.6 189.537C1177.64 189.09 1177.64 188.642 1177.64 188.195C1177.73 184.662 1177.77 181.039 1176.55 177.728C1175.83 175.76 1174.65 174.016 1173.68 172.182C1173.64 172.137 1173.64 172.048 1173.6 172.003C1176.97 172.898 1180.71 172.406 1183.45 170.125C1186.61 167.486 1187.83 162.342 1185.72 158.719C1184.88 157.287 1183.66 156.214 1182.69 154.872C1179.66 150.578 1179.16 146.15 1173.35 145.613C1169.98 145.3 1165.98 145.881 1164.13 149.147C1158.95 141.766 1150.03 137.785 1141.36 138.009C1132.23 138.233 1123.51 142.661 1116.61 149.012C1114.47 151.025 1112.4 153.262 1111.14 155.99C1109.88 158.719 1109.5 161.76 1109.25 164.757C1109 167.709 1108.53 172.137 1109.88 174.866L1109.63 176.387C1108.36 178.221 1110 180.77 1111.73 182.112C1122.8 191.013 1139.64 188.285 1150.28 197.767C1154.79 201.748 1157.61 207.518 1159.29 213.512C1160.09 216.375 1160.68 219.371 1160.38 222.368C1159.71 229.078 1155 234.311 1151.42 239.902C1147.09 246.656 1144.18 254.484 1143.13 262.58C1142.58 266.65 1142.67 271.347 1145.4 274.254C1147.97 277.027 1152.3 277.564 1154.24 280.874C1156.68 285.034 1153.69 290.401 1153.82 295.321C1153.94 299.973 1157.31 304.312 1161.6 305.296C1165.1 306.101 1168.67 304.894 1172.21 304.446C1175.75 304.044 1179.95 304.804 1181.64 308.159C1182.82 310.53 1182.4 313.481 1183.41 315.942C1184.88 319.52 1189.09 321.041 1192.71 320.415C1196.33 319.788 1199.48 317.552 1202.52 315.316C1204.16 314.108 1205.92 312.676 1206.13 310.574C1206.26 309.098 1205.59 307.667 1204.79 306.459C1202.3 302.568 1198.6 298.453 1199.91 293.98C1200.75 291.028 1203.52 289.238 1205.76 287.27C1208.79 284.586 1211.18 281.008 1212.03 276.938C1212.87 272.733 1212.07 268.171 1209.46 265.084Z" fill="black"/>
<defs>
<linearGradient id="paint0_linear_0_1" x1="829.711" y1="616.8" x2="975.507" y2="623.353" gradientUnits="userSpaceOnUse">
<stop stop-color="white"/>
<stop offset="1"/>
</linearGradient>
<linearGradient id="paint1_linear_0_1" x1="829.704" y1="616.8" x2="975.5" y2="623.353" gradientUnits="userSpaceOnUse">
<stop/>
<stop offset="1"/>
</linearGradient>
<linearGradient id="paint2_linear_0_1" x1="1092.17" y1="621.1" x2="1212.95" y2="622.423" gradientUnits="userSpaceOnUse">
<stop stop-color="white"/>
<stop offset="1"/>
</linearGradient>
<linearGradient id="paint3_linear_0_1" x1="1092.16" y1="621.1" x2="1212.94" y2="622.423" gradientUnits="userSpaceOnUse">
<stop/>
<stop offset="1"/>
</linearGradient>
</defs>
</svg>
