<svg width="50" height="52" viewBox="0 0 50 52" fill="none" xmlns="http://www.w3.org/2000/svg">
<path fill-rule="evenodd" clip-rule="evenodd" d="M25.1317 4.76501C29.9305 4.76501 33.8107 8.68474 33.8107 13.5161C33.8107 18.3522 29.9305 22.2672 25.1317 22.2672C20.3328 22.2672 16.4479 18.3522 16.4479 13.5161C16.4479 8.68474 20.3328 4.76501 25.1317 4.76501ZM26.8712 45.2669H22.8706C22.8304 41.7251 23.2021 40.5176 26.0658 38.1639C27.2701 37.182 28.9431 36.1307 28.9431 34.4056C28.9431 32.3181 27.0205 31.2871 25.1518 31.2871C22.6678 31.2871 21.2932 32.8499 20.7992 35.1899L16.7715 34.6704C17.0416 30.2571 20.8666 27.9095 24.9693 27.9095C28.8944 27.9095 33.2278 30.1004 33.2278 34.5345C33.2278 37.318 30.8384 39.2347 28.8944 40.8584C27.0875 42.3726 26.8174 42.8849 26.8712 45.2669ZM22.8706 51.1953V46.781H26.8712V51.1953H22.8706ZM8.09949 0.609375H41.9006C46.3595 0.609375 50 4.27808 50 8.77159V42.8338C50 47.3273 46.3595 50.995 41.9006 50.995H40.2253V31.937C40.2253 27.8237 36.8722 24.4594 32.7959 24.4594H17.2097C13.1323 24.4594 9.77846 27.8238 9.77846 31.937V50.995H8.09937C3.64046 50.995 0 47.3268 0 42.8338V8.77159C0 4.27808 3.64058 0.609375 8.09949 0.609375Z" fill="white"/>
</svg>
